<?xml version="1.0" standalone="no"?>
<!DOCTYPE svg PUBLIC "-//W3C//DTD SVG 20010904//EN"
 "http://www.w3.org/TR/2001/REC-SVG-20010904/DTD/svg10.dtd">
<svg version="1.0" xmlns="http://www.w3.org/2000/svg"
 width="200.000000pt" height="200.000000pt" viewBox="0 0 200.000000 200.000000"
 preserveAspectRatio="xMidYMid meet">

<g transform="translate(0.000000,200.000000) scale(0.100000,-0.100000)"
fill="#D86613" stroke="none">
<path d="M878 1930 c-107 -17 -183 -41 -284 -90 -194 -94 -332 -231 -429 -425
-74 -149 -99 -252 -99 -415 0 -158 25 -265 94 -406 95 -195 231 -332 425 -429
149 -74 252 -99 415 -99 158 0 265 25 406 94 195 95 332 231 429 425 74 149
99 252 99 415 0 163 -25 266 -99 415 -97 194 -234 330 -429 425 -55 27 -139
59 -186 70 -99 23 -260 33 -342 20z m372 -105 c286 -92 480 -286 576 -575 26
-79 28 -96 28 -250 0 -154 -2 -171 -28 -250 -96 -289 -287 -480 -576 -576 -79
-26 -96 -28 -250 -28 -154 0 -171 2 -250 28 -289 96 -480 287 -576 576 -26 79
-28 96 -28 250 0 154 2 171 28 250 94 281 288 481 557 569 107 35 147 40 294
37 120 -3 152 -7 225 -31z"/>
<path d="M594 1697 c-2 -7 -3 -80 -2 -162 l3 -150 101 -3 102 -3 207 -447
c114 -246 214 -457 221 -469 14 -22 19 -23 182 -23 117 0 172 4 180 12 13 13
18 271 6 302 -5 12 -21 16 -68 16 l-62 0 -216 468 -217 467 -216 3 c-171 2
-217 0 -221 -11z m600 -517 c116 -250 215 -461 219 -467 5 -8 30 -13 63 -13
l54 0 0 -95 0 -95 -124 0 -123 0 -208 448 c-114 246 -214 457 -221 470 -13 20
-22 22 -104 22 l-90 0 0 95 0 95 161 -2 162 -3 211 -455z"/>
<path d="M697 1153 c-129 -256 -318 -668 -315 -686 3 -22 5 -22 192 -22 l190
0 92 195 c51 107 93 202 93 210 0 8 -39 94 -87 190 -105 212 -113 217 -165
113z m120 -185 l57 -118 -73 -152 c-40 -84 -75 -161 -78 -170 -5 -16 -20 -18
-129 -18 l-123 0 53 113 c184 390 222 466 228 464 4 -1 33 -55 65 -119z"/>
</g>
</svg>
